<mxfile host="65bd71144e">
    <diagram id="yDrfxnIEmq6K1OEeBAZV" name="Page-1">
        <mxGraphModel dx="1109" dy="1194" grid="1" gridSize="10" guides="1" tooltips="1" connect="1" arrows="1" fold="1" page="1" pageScale="1" pageWidth="1169" pageHeight="827" math="0" shadow="0">
            <root>
                <mxCell id="0"/>
                <mxCell id="1" parent="0"/>
                <mxCell id="17" value="" style="rounded=1;whiteSpace=wrap;html=1;fillColor=none;strokeColor=#FFFFFF;fontColor=#FFFFFF;" parent="1" vertex="1">
                    <mxGeometry x="20" y="30" width="480" height="190" as="geometry"/>
                </mxCell>
                <mxCell id="18" value="" style="endArrow=classic;html=1;startArrow=none;startFill=0;endFill=1;strokeWidth=2;fontColor=#FFFFFF;strokeColor=#FFFFFF;" parent="1" edge="1">
                    <mxGeometry width="50" height="50" relative="1" as="geometry">
                        <mxPoint x="50" y="180" as="sourcePoint"/>
                        <mxPoint x="450" y="180" as="targetPoint"/>
                    </mxGeometry>
                </mxCell>
                <mxCell id="19" value="160" style="edgeLabel;html=1;align=center;verticalAlign=middle;resizable=0;points=[];fontColor=#FFFFFF;fontSize=20;labelBackgroundColor=none;" parent="18" vertex="1" connectable="0">
                    <mxGeometry x="-0.5355" y="1" relative="1" as="geometry">
                        <mxPoint x="98" y="21" as="offset"/>
                    </mxGeometry>
                </mxCell>
                <mxCell id="20" value="320pixeles" style="edgeLabel;html=1;align=center;verticalAlign=middle;resizable=0;points=[];fontColor=#FFFFFF;fontSize=20;labelBackgroundColor=none;" parent="18" vertex="1" connectable="0">
                    <mxGeometry x="0.8955" y="3" relative="1" as="geometry">
                        <mxPoint y="23" as="offset"/>
                    </mxGeometry>
                </mxCell>
                <mxCell id="21" value="" style="endArrow=none;html=1;fillColor=#008a00;strokeColor=#005700;strokeWidth=4;" parent="1" edge="1">
                    <mxGeometry width="50" height="50" relative="1" as="geometry">
                        <mxPoint x="50" y="180" as="sourcePoint"/>
                        <mxPoint x="245" y="80" as="targetPoint"/>
                    </mxGeometry>
                </mxCell>
                <mxCell id="22" value="" style="endArrow=none;html=1;fillColor=#a20025;strokeColor=#6F0000;strokeWidth=4;" parent="1" edge="1">
                    <mxGeometry width="50" height="50" relative="1" as="geometry">
                        <mxPoint x="240" y="180" as="sourcePoint"/>
                        <mxPoint x="430" y="80" as="targetPoint"/>
                    </mxGeometry>
                </mxCell>
                <mxCell id="23" value="" style="endArrow=none;html=1;fillColor=#a20025;strokeColor=#6F0000;strokeWidth=4;" parent="1" edge="1">
                    <mxGeometry width="50" height="50" relative="1" as="geometry">
                        <mxPoint x="430" y="180" as="sourcePoint"/>
                        <mxPoint x="430" y="80" as="targetPoint"/>
                    </mxGeometry>
                </mxCell>
                <mxCell id="24" value="" style="endArrow=classic;html=1;startArrow=none;startFill=0;endFill=1;strokeWidth=2;fontColor=#FFFFFF;strokeColor=#FFFFFF;" parent="1" edge="1">
                    <mxGeometry width="50" height="50" relative="1" as="geometry">
                        <mxPoint x="50" y="180" as="sourcePoint"/>
                        <mxPoint x="50" y="50" as="targetPoint"/>
                    </mxGeometry>
                </mxCell>
                <mxCell id="25" value="" style="endArrow=none;html=1;fontColor=#33FF33;strokeWidth=4;fillColor=#6a00ff;strokeColor=#3700CC;" parent="1" edge="1">
                    <mxGeometry width="50" height="50" relative="1" as="geometry">
                        <mxPoint x="50" y="80" as="sourcePoint"/>
                        <mxPoint x="240" y="180" as="targetPoint"/>
                    </mxGeometry>
                </mxCell>
                <mxCell id="26" value="CENTRO" style="text;html=1;align=center;verticalAlign=middle;resizable=0;points=[];autosize=1;strokeColor=none;fillColor=none;fontColor=#33FF33;fontSize=20;" parent="1" vertex="1">
                    <mxGeometry x="190" y="110" width="100" height="30" as="geometry"/>
                </mxCell>
                <mxCell id="27" value="DERECHA" style="text;html=1;align=center;verticalAlign=middle;resizable=0;points=[];autosize=1;fontColor=#0000FF;fontSize=20;" parent="1" vertex="1">
                    <mxGeometry x="80" y="70" width="110" height="30" as="geometry"/>
                </mxCell>
                <mxCell id="28" value="" style="endArrow=none;html=1;fillColor=#008a00;strokeColor=#005700;strokeWidth=4;" parent="1" edge="1">
                    <mxGeometry width="50" height="50" relative="1" as="geometry">
                        <mxPoint x="240" y="80" as="sourcePoint"/>
                        <mxPoint x="430" y="180" as="targetPoint"/>
                    </mxGeometry>
                </mxCell>
                <mxCell id="29" value="IZQUIERDA" style="text;html=1;align=center;verticalAlign=middle;resizable=0;points=[];autosize=1;fontColor=#660000;fontSize=20;" parent="1" vertex="1">
                    <mxGeometry x="280" y="70" width="120" height="30" as="geometry"/>
                </mxCell>
                <mxCell id="30" value="0" style="edgeLabel;html=1;align=center;verticalAlign=middle;resizable=0;points=[];fontColor=#FFFFFF;fontSize=20;labelBackgroundColor=none;" parent="1" vertex="1" connectable="0">
                    <mxGeometry x="60" y="199.9999999999999" as="geometry">
                        <mxPoint x="-6" y="-4" as="offset"/>
                    </mxGeometry>
                </mxCell>
                <mxCell id="31" value="" style="endArrow=none;html=1;fontColor=#33FF33;strokeWidth=4;fillColor=#6a00ff;strokeColor=#3700CC;" parent="1" edge="1">
                    <mxGeometry width="50" height="50" relative="1" as="geometry">
                        <mxPoint x="50" y="80" as="sourcePoint"/>
                        <mxPoint x="50" y="180" as="targetPoint"/>
                    </mxGeometry>
                </mxCell>
                <mxCell id="32" value="" style="rounded=1;whiteSpace=wrap;html=1;fillColor=none;strokeColor=#FFFFFF;fontColor=#FFFFFF;" parent="1" vertex="1">
                    <mxGeometry x="520" y="30" width="480" height="190" as="geometry"/>
                </mxCell>
                <mxCell id="33" value="" style="endArrow=classic;html=1;startArrow=none;startFill=0;endFill=1;strokeWidth=2;fontColor=#000000;strokeColor=#FFFFFF;" parent="1" edge="1">
                    <mxGeometry width="50" height="50" relative="1" as="geometry">
                        <mxPoint x="550" y="180" as="sourcePoint"/>
                        <mxPoint x="950" y="180" as="targetPoint"/>
                    </mxGeometry>
                </mxCell>
                <mxCell id="34" value="90" style="edgeLabel;html=1;align=center;verticalAlign=middle;resizable=0;points=[];fontColor=#FFFFFF;fontSize=20;labelBackgroundColor=none;" parent="33" vertex="1" connectable="0">
                    <mxGeometry x="-0.5355" y="1" relative="1" as="geometry">
                        <mxPoint x="27" y="21" as="offset"/>
                    </mxGeometry>
                </mxCell>
                <mxCell id="35" value="500cm" style="edgeLabel;html=1;align=center;verticalAlign=middle;resizable=0;points=[];fontColor=#FFFFFF;fontSize=20;labelBackgroundColor=none;" parent="33" vertex="1" connectable="0">
                    <mxGeometry x="0.8955" y="3" relative="1" as="geometry">
                        <mxPoint y="23" as="offset"/>
                    </mxGeometry>
                </mxCell>
                <mxCell id="36" value="" style="endArrow=none;html=1;fillColor=#008a00;strokeColor=#005700;strokeWidth=4;" parent="1" edge="1">
                    <mxGeometry width="50" height="50" relative="1" as="geometry">
                        <mxPoint x="550" y="180" as="sourcePoint"/>
                        <mxPoint x="670" y="80" as="targetPoint"/>
                    </mxGeometry>
                </mxCell>
                <mxCell id="37" value="" style="endArrow=none;html=1;fillColor=#008a00;strokeColor=#005700;strokeWidth=4;" parent="1" edge="1">
                    <mxGeometry width="50" height="50" relative="1" as="geometry">
                        <mxPoint x="670" y="80" as="sourcePoint"/>
                        <mxPoint x="930" y="80" as="targetPoint"/>
                    </mxGeometry>
                </mxCell>
                <mxCell id="38" value="" style="endArrow=none;html=1;fillColor=#008a00;strokeColor=#005700;strokeWidth=4;" parent="1" edge="1">
                    <mxGeometry width="50" height="50" relative="1" as="geometry">
                        <mxPoint x="930" y="180" as="sourcePoint"/>
                        <mxPoint x="930" y="80" as="targetPoint"/>
                    </mxGeometry>
                </mxCell>
                <mxCell id="39" value="" style="endArrow=classic;html=1;startArrow=none;startFill=0;endFill=1;strokeWidth=2;fontColor=#000000;strokeColor=#FFFFFF;" parent="1" edge="1">
                    <mxGeometry width="50" height="50" relative="1" as="geometry">
                        <mxPoint x="550" y="180" as="sourcePoint"/>
                        <mxPoint x="550" y="50" as="targetPoint"/>
                    </mxGeometry>
                </mxCell>
                <mxCell id="40" value="" style="endArrow=none;html=1;fontColor=#33FF33;strokeWidth=4;fillColor=#6a00ff;strokeColor=#3700CC;" parent="1" edge="1">
                    <mxGeometry width="50" height="50" relative="1" as="geometry">
                        <mxPoint x="550" y="80" as="sourcePoint"/>
                        <mxPoint x="670" y="180" as="targetPoint"/>
                    </mxGeometry>
                </mxCell>
                <mxCell id="41" value="LEJOS" style="text;html=1;align=center;verticalAlign=middle;resizable=0;points=[];autosize=1;strokeColor=none;fillColor=none;fontColor=#33FF33;fontSize=20;" parent="1" vertex="1">
                    <mxGeometry x="720" y="110" width="80" height="30" as="geometry"/>
                </mxCell>
                <mxCell id="42" value="CERCA" style="text;html=1;align=center;verticalAlign=middle;resizable=0;points=[];autosize=1;fontColor=#0000FF;fontSize=20;" parent="1" vertex="1">
                    <mxGeometry x="570" y="70" width="90" height="30" as="geometry"/>
                </mxCell>
                <mxCell id="43" value="&lt;font style=&quot;font-size: 20px&quot;&gt;distancia sensada&lt;/font&gt;" style="text;strokeColor=none;fillColor=none;html=1;fontSize=24;fontStyle=1;verticalAlign=middle;align=center;fontColor=#FFFFFF;" parent="1" vertex="1">
                    <mxGeometry x="800" y="30" width="195" height="40" as="geometry"/>
                </mxCell>
                <mxCell id="44" value="&lt;font style=&quot;font-size: 20px&quot;&gt;centro de masa&lt;/font&gt;" style="text;strokeColor=none;fillColor=none;html=1;fontSize=24;fontStyle=1;verticalAlign=middle;align=center;fontColor=#FFFFFF;" parent="1" vertex="1">
                    <mxGeometry x="330" y="30" width="160" height="40" as="geometry"/>
                </mxCell>
                <mxCell id="45" value="0" style="edgeLabel;html=1;align=center;verticalAlign=middle;resizable=0;points=[];fontColor=#FFFFFF;fontSize=20;labelBackgroundColor=none;" parent="1" vertex="1" connectable="0">
                    <mxGeometry x="680.1034482758621" y="209.9999999999999" as="geometry">
                        <mxPoint x="-122" y="-12" as="offset"/>
                    </mxGeometry>
                </mxCell>
                <mxCell id="46" value="1" style="edgeLabel;html=1;align=center;verticalAlign=middle;resizable=0;points=[];fontColor=#FFFFFF;fontSize=20;labelBackgroundColor=none;" parent="1" vertex="1" connectable="0">
                    <mxGeometry x="40" y="84.99999999999989" as="geometry">
                        <mxPoint x="-5" y="-4" as="offset"/>
                    </mxGeometry>
                </mxCell>
                <mxCell id="47" value="1" style="edgeLabel;html=1;align=center;verticalAlign=middle;resizable=0;points=[];fontColor=#FFFFFF;fontSize=20;labelBackgroundColor=none;" parent="1" vertex="1" connectable="0">
                    <mxGeometry x="50" y="89.99999999999989" as="geometry">
                        <mxPoint x="485" y="-10" as="offset"/>
                    </mxGeometry>
                </mxCell>
            </root>
        </mxGraphModel>
    </diagram>
</mxfile>